<svg xmlns="http://www.w3.org/2000/svg" xmlns:xlink="http://www.w3.org/1999/xlink" width="1366" zoomAndPan="magnify" viewBox="0 0 1024.5 576" height="768" preserveAspectRatio="xMidYMid meet" version="1.0"><defs><g/><clipPath id="7aec868ed4"><path d="M 0 0.140625 L 1024 0.140625 L 1024 575.859375 L 0 575.859375 Z M 0 0.140625 " clip-rule="nonzero"/></clipPath><clipPath id="77b4b9de29"><path d="M 770 80 L 903 80 L 903 214 L 770 214 Z M 770 80 " clip-rule="nonzero"/></clipPath><clipPath id="2215602a51"><path d="M 742.980469 101.167969 L 836.566406 14.667969 L 966.316406 155.046875 L 872.730469 241.546875 Z M 742.980469 101.167969 " clip-rule="nonzero"/></clipPath><clipPath id="399499547d"><path d="M 742.980469 101.167969 L 836.566406 14.667969 L 966.316406 155.046875 L 872.730469 241.546875 Z M 742.980469 101.167969 " clip-rule="nonzero"/></clipPath><clipPath id="78424e1640"><path d="M 708 135 L 838 135 L 838 266 L 708 266 Z M 708 135 " clip-rule="nonzero"/></clipPath><clipPath id="7366199cf0"><path d="M 681.351562 155.425781 L 772.738281 70.960938 L 899.433594 208.035156 L 808.046875 292.5 Z M 681.351562 155.425781 " clip-rule="nonzero"/></clipPath><clipPath id="8fd415d51c"><path d="M 681.351562 155.425781 L 772.738281 70.960938 L 899.433594 208.035156 L 808.046875 292.5 Z M 681.351562 155.425781 " clip-rule="nonzero"/></clipPath></defs><g clip-path="url(#7aec868ed4)"><path fill="#ffffff" d="M 0 0.140625 L 1024 0.140625 L 1024 575.859375 L 0 575.859375 Z M 0 0.140625 " fill-opacity="1" fill-rule="nonzero"/><path fill="#ffffff" d="M 0 0.140625 L 1024 0.140625 L 1024 575.859375 L 0 575.859375 Z M 0 0.140625 " fill-opacity="1" fill-rule="nonzero"/></g><g clip-path="url(#77b4b9de29)"><g clip-path="url(#2215602a51)"><g clip-path="url(#399499547d)"><path fill="#18cb96" d="M 902.53125 85.589844 L 788.433594 80.519531 C 766.398438 79.542969 762.675781 122.472656 788.789062 123.179688 L 859.785156 125.101562 L 854.363281 196.542969 C 852.710938 218.296875 895.136719 220.59375 896.347656 198.484375 Z M 902.53125 85.589844 " fill-opacity="1" fill-rule="nonzero"/></g></g></g><g clip-path="url(#78424e1640)"><g clip-path="url(#7366199cf0)"><g clip-path="url(#8fd415d51c)"><path fill="#18cb96" d="M 837.144531 140.21875 L 725.734375 135.265625 C 704.21875 134.308594 700.582031 176.226562 726.078125 176.917969 L 795.402344 178.796875 L 790.109375 248.550781 C 788.496094 269.792969 829.921875 272.039062 831.105469 250.449219 Z M 837.144531 140.21875 " fill-opacity="1" fill-rule="nonzero"/></g></g></g><g fill="#373643" fill-opacity="1"><g transform="translate(173.761065, 330.934079)"><g><path d="M 91.59375 -22.765625 L 43.5 -22.765625 L 35.796875 0 L 2.9375 0 L 49.5625 -128.859375 L 85.90625 -128.859375 L 132.53125 0 L 99.3125 0 Z M 83.515625 -46.984375 L 67.546875 -94.171875 L 51.765625 -46.984375 Z M 83.515625 -46.984375 "/></g></g></g><g fill="#373643" fill-opacity="1"><g transform="translate(298.94073, 330.934079)"><g><path d="M 42.765625 -24.234375 L 83.890625 -24.234375 L 83.890625 0 L 11.375 0 L 11.375 -128.859375 L 42.765625 -128.859375 Z M 42.765625 -24.234375 "/></g></g></g><g fill="#373643" fill-opacity="1"><g transform="translate(376.397605, 330.934079)"><g><path d="M 72.328125 1.28125 C 60.210938 1.28125 49.101562 -1.53125 39 -7.15625 C 28.90625 -12.789062 20.890625 -20.65625 14.953125 -30.75 C 9.023438 -40.84375 6.0625 -52.191406 6.0625 -64.796875 C 6.0625 -77.398438 9.023438 -88.71875 14.953125 -98.75 C 20.890625 -108.789062 28.90625 -116.625 39 -122.25 C 49.101562 -127.882812 60.210938 -130.703125 72.328125 -130.703125 C 84.441406 -130.703125 95.546875 -127.882812 105.640625 -122.25 C 115.734375 -116.625 123.6875 -108.789062 129.5 -98.75 C 135.3125 -88.71875 138.21875 -77.398438 138.21875 -64.796875 C 138.21875 -52.191406 135.28125 -40.84375 129.40625 -30.75 C 123.53125 -20.65625 115.578125 -12.789062 105.546875 -7.15625 C 95.515625 -1.53125 84.441406 1.28125 72.328125 1.28125 Z M 72.328125 -27.34375 C 82.609375 -27.34375 90.835938 -30.769531 97.015625 -37.625 C 103.191406 -44.476562 106.28125 -53.535156 106.28125 -64.796875 C 106.28125 -76.179688 103.191406 -85.269531 97.015625 -92.0625 C 90.835938 -98.851562 82.609375 -102.25 72.328125 -102.25 C 61.921875 -102.25 53.628906 -98.878906 47.453125 -92.140625 C 41.273438 -85.410156 38.1875 -76.296875 38.1875 -64.796875 C 38.1875 -53.410156 41.273438 -44.320312 47.453125 -37.53125 C 53.628906 -30.738281 61.921875 -27.34375 72.328125 -27.34375 Z M 72.328125 -27.34375 "/></g></g></g><g fill="#373643" fill-opacity="1"><g transform="translate(510.571156, 330.934079)"><g><path d="M 122.984375 -128.859375 L 122.984375 0 L 91.59375 0 L 91.59375 -53.046875 L 42.765625 -53.046875 L 42.765625 0 L 11.375 0 L 11.375 -128.859375 L 42.765625 -128.859375 L 42.765625 -78.375 L 91.59375 -78.375 L 91.59375 -128.859375 Z M 122.984375 -128.859375 "/></g></g></g><g fill="#373643" fill-opacity="1"><g transform="translate(634.649537, 330.934079)"><g><path d="M 91.59375 -22.765625 L 43.5 -22.765625 L 35.796875 0 L 2.9375 0 L 49.5625 -128.859375 L 85.90625 -128.859375 L 132.53125 0 L 99.3125 0 Z M 83.515625 -46.984375 L 67.546875 -94.171875 L 51.765625 -46.984375 Z M 83.515625 -46.984375 "/></g></g></g><g fill="#545454" fill-opacity="1"><g transform="translate(214.591016, 450.648001)"><g><path d="M 42.5 -13.46875 L 16.078125 -13.46875 L 11.203125 0 L 2.875 0 L 24.765625 -60.21875 L 33.890625 -60.21875 L 55.703125 0 L 47.359375 0 Z M 40.234375 -19.90625 L 29.28125 -50.5 L 18.34375 -19.90625 Z M 40.234375 -19.90625 "/></g></g></g><g fill="#545454" fill-opacity="1"><g transform="translate(269.858205, 450.648001)"><g><path d="M 14.59375 -60.578125 L 14.59375 0 L 6.6875 0 L 6.6875 -60.578125 Z M 14.59375 -60.578125 "/></g></g></g><g fill="#545454" fill-opacity="1"><g transform="translate(287.93257, 450.648001)"><g/></g></g><g fill="#545454" fill-opacity="1"><g transform="translate(307.831807, 450.648001)"><g><path d="M 10.609375 5.296875 C 14.953125 -2.6875 20.25 -13.640625 24.15625 -22.859375 L 19.125 -26.5 C 14.78125 -16.6875 9.03125 -5.21875 4.859375 1.5625 Z M 21.546875 -39.984375 C 18.078125 -42.234375 11.5625 -45.71875 6.859375 -48.0625 L 3.296875 -43.28125 C 8.078125 -40.765625 14.515625 -37.015625 17.8125 -34.671875 Z M 6.34375 -66.484375 C 10.953125 -63.875 17.203125 -59.875 20.34375 -57.4375 L 24.15625 -62.65625 C 20.9375 -64.921875 14.59375 -68.65625 10.078125 -71.09375 Z M 57.359375 -50.3125 L 49.015625 -50.3125 L 49.015625 -61.96875 L 57.359375 -61.96875 Z M 73.34375 -32.5 C 73.09375 -32.421875 72.734375 -32.328125 71.703125 -32.328125 L 64.65625 -32.328125 C 62.65625 -32.328125 62.3125 -32.5 62.3125 -33.984375 L 62.3125 -44.578125 L 73.34375 -44.578125 Z M 34.421875 -3.21875 L 34.421875 -13.203125 L 73.34375 -13.203125 L 73.34375 -3.21875 Z M 44.0625 -44.578125 L 44.0625 -41.625 C 44.0625 -37.015625 42.234375 -31.453125 34.421875 -27.203125 L 34.421875 -44.578125 Z M 72.390625 -27.03125 L 73.34375 -27.03125 L 73.34375 -18.765625 L 34.421875 -18.765625 L 34.421875 -26.15625 C 35.546875 -25.296875 36.84375 -23.984375 37.453125 -23.109375 C 46.84375 -28.078125 49.28125 -35.375 49.28125 -41.546875 L 49.28125 -44.578125 L 57.1875 -44.578125 L 57.1875 -33.890625 C 57.1875 -28.421875 58.65625 -27.03125 64.140625 -27.03125 Z M 82.734375 -61.96875 L 82.734375 -67.875 L 25.375 -67.875 L 25.375 -61.96875 L 43.28125 -61.96875 L 43.28125 -50.3125 L 28.5 -50.3125 L 28.5 6.609375 L 34.421875 6.609375 L 34.421875 2.515625 L 73.34375 2.515625 L 73.34375 6.34375 L 79.515625 6.34375 L 79.515625 -50.3125 L 63.265625 -50.3125 L 63.265625 -61.96875 Z M 82.734375 -61.96875 "/></g></g></g><g fill="#545454" fill-opacity="1"><g transform="translate(391.42812, 450.648001)"><g><path d="M 27.109375 -61.015625 C 26.25 -64.21875 24.15625 -69 22.15625 -72.734375 L 16.6875 -70.828125 C 18.421875 -67.09375 20.515625 -62.140625 21.375 -58.921875 Z M 19.984375 -41.015625 L 19.984375 -52.234375 L 38.328125 -52.234375 L 38.328125 -58.3125 L 4.78125 -58.3125 L 4.78125 -52.234375 L 14.078125 -52.234375 L 14.078125 -39.015625 C 14.078125 -26.421875 12.953125 -10.609375 3.046875 2.78125 C 4.515625 3.65625 6.6875 5.21875 7.640625 6.4375 C 17.46875 -6.609375 19.640625 -21.640625 19.984375 -35.109375 L 29.8125 -35.109375 C 29.203125 -11.390625 28.421875 -2.953125 27.109375 -1.046875 C 26.421875 0 25.71875 0.171875 24.6875 0.171875 C 23.375 0.171875 20.6875 0.09375 17.5625 -0.171875 C 18.515625 1.390625 19.125 3.828125 19.203125 5.5625 C 22.328125 5.734375 25.375 5.734375 27.28125 5.46875 C 29.375 5.296875 30.9375 4.609375 32.25 2.78125 C 34.328125 -0.171875 35.015625 -9.640625 35.71875 -38.0625 C 35.8125 -39.015625 35.8125 -41.015625 35.8125 -41.015625 Z M 81.953125 -55.265625 L 81.953125 -61.1875 L 51.96875 -61.1875 C 53.28125 -64.484375 54.484375 -67.953125 55.453125 -71.609375 L 49.1875 -72.734375 C 46.671875 -62.484375 41.96875 -52.671875 35.8125 -46.328125 C 37.28125 -45.359375 39.796875 -43.359375 40.9375 -42.40625 C 43.96875 -45.890625 46.921875 -50.3125 49.359375 -55.265625 Z M 77.34375 -37.71875 C 74.65625 -34.671875 70.5625 -31.03125 66.828125 -27.984375 C 65.53125 -32.671875 64.65625 -37.625 63.875 -42.671875 C 69.875 -44.328125 75.609375 -46.234375 80.296875 -48.234375 L 75.09375 -52.75 C 68.046875 -49.28125 55.453125 -45.71875 44.328125 -43.359375 L 44.328125 -5.90625 C 44.328125 -1.90625 42.578125 0.171875 41.375 1.21875 C 42.328125 2.265625 44.0625 4.6875 44.671875 6.078125 C 46.140625 4.609375 48.578125 3.46875 64.484375 -3.90625 C 64.046875 -5.296875 63.609375 -7.90625 63.53125 -9.640625 L 50.5 -3.90625 L 50.5 -39.375 C 53.09375 -39.984375 55.796875 -40.578125 58.40625 -41.28125 C 61.359375 -20.6875 67.171875 -3.390625 78.734375 5.296875 C 79.6875 3.5625 81.6875 1.21875 83.171875 0.09375 C 76.5625 -4.515625 71.78125 -12.59375 68.484375 -22.515625 C 72.828125 -25.546875 78.046875 -29.8125 82.046875 -33.71875 Z M 77.34375 -37.71875 "/></g></g></g><g fill="#545454" fill-opacity="1"><g transform="translate(475.024434, 450.648001)"><g><path d="M 14.515625 -56.75 L 72.3125 -56.75 L 72.3125 -45.28125 L 78.90625 -45.28125 L 78.90625 -62.828125 L 49.359375 -62.828125 C 48.140625 -65.875 45.796875 -70.046875 43.71875 -73.265625 L 37.375 -71.265625 C 38.9375 -68.75 40.578125 -65.53125 41.71875 -62.828125 L 8.171875 -62.828125 L 8.171875 -45.28125 L 14.515625 -45.28125 Z M 37.796875 -42.84375 C 35.109375 -45.890625 29.546875 -49.796875 24.9375 -52.3125 L 21.03125 -48.234375 C 25.71875 -45.453125 31.203125 -41.1875 33.71875 -38.234375 Z M 12.515625 -34.84375 C 17.296875 -32.0625 23.109375 -27.890625 25.890625 -24.765625 L 29.8125 -29.640625 C 27.03125 -32.59375 21.03125 -36.59375 16.25 -39.1875 Z M 46.671875 -9.5625 C 58.140625 -5.21875 69.703125 0.78125 76.65625 6.078125 L 80.5625 1.125 C 73.515625 -4.078125 61.359375 -10.078125 49.796875 -14.25 Z M 47.015625 -22.328125 C 49.359375 -30.671875 50.0625 -40.578125 50.40625 -52.40625 L 43.71875 -52.40625 C 43.359375 -40.15625 42.84375 -30.328125 40.15625 -22.328125 L 6.515625 -22.328125 L 6.515625 -16.6875 L 37.546875 -16.6875 C 32.765625 -8.34375 23.90625 -2.6875 7.390625 0.78125 C 8.78125 2.171875 10.34375 4.609375 11.03125 6.34375 C 30.328125 1.90625 40.0625 -5.65625 45.015625 -16.6875 L 80.90625 -16.6875 L 80.90625 -22.328125 Z M 47.015625 -22.328125 "/></g></g></g><g fill="#545454" fill-opacity="1"><g transform="translate(558.620765, 450.648001)"><g><path d="M 25.984375 -18.6875 C 17.46875 -16.515625 9.03125 -14.25 3.125 -12.953125 L 4.34375 -7.5625 C 10.859375 -9.296875 18.765625 -11.5625 26.59375 -13.734375 Z M 29.203125 -32.328125 C 30.328125 -41.71875 31.546875 -57.1875 32.421875 -68.828125 L 5.90625 -68.828125 L 5.90625 -63.1875 L 26.5 -63.1875 C 25.8125 -52.75 24.6875 -40.578125 23.640625 -32.328125 L 12.953125 -32.328125 C 13.734375 -39.546875 14.59375 -48.921875 15.125 -56.484375 L 9.5625 -56.75 C 9.03125 -47.53125 7.90625 -34.59375 6.859375 -27.03125 L 29.984375 -27.03125 C 28.859375 -9.296875 27.546875 -2.265625 25.71875 -0.4375 C 24.9375 0.515625 24.078125 0.609375 22.6875 0.609375 C 21.03125 0.609375 17.03125 0.515625 12.78125 0.09375 C 13.8125 1.65625 14.421875 3.828125 14.59375 5.5625 C 18.6875 5.734375 22.765625 5.828125 24.859375 5.65625 C 27.46875 5.46875 29.03125 4.859375 30.59375 3.125 C 33.203125 0.34375 34.5 -7.828125 35.890625 -29.640625 C 35.984375 -30.421875 35.984375 -32.328125 35.984375 -32.328125 Z M 57.796875 -73.34375 C 52.578125 -61.1875 43.015625 -50.578125 32.765625 -43.96875 C 33.8125 -42.765625 35.8125 -40.0625 36.59375 -38.84375 C 44.75 -44.578125 52.578125 -52.671875 58.40625 -62.140625 C 64.484375 -53.703125 73.34375 -44.75 81.078125 -39.015625 C 81.6875 -40.84375 83.171875 -43.546875 84.296875 -45.015625 C 76.390625 -50.234375 67 -59.359375 61.53125 -67.53125 C 62.140625 -68.828125 62.828125 -70.046875 63.4375 -71.4375 Z M 72.046875 -45.890625 L 46.328125 -45.890625 L 46.328125 -40.328125 L 72.046875 -40.328125 Z M 64.65625 -13.734375 C 64.140625 -19.375 62.578125 -27.71875 60.921875 -34.328125 L 55.796875 -33.625 C 57.359375 -27.03125 58.921875 -18.515625 59.265625 -12.953125 Z M 40.671875 -31.453125 C 43.109375 -24.859375 45.53125 -16.34375 46.140625 -10.6875 L 51.453125 -12.171875 C 50.578125 -17.640625 48.234375 -26.15625 45.71875 -32.671875 Z M 75.34375 -33.203125 C 72.484375 -24.078125 67.265625 -11.203125 63 -3.21875 L 37.890625 -3.21875 L 37.890625 2.4375 L 81.859375 2.4375 L 81.859375 -3.21875 L 68.5625 -3.21875 C 72.828125 -11.125 77.609375 -22.515625 81.25 -31.640625 Z M 75.34375 -33.203125 "/></g></g></g><g fill="#545454" fill-opacity="1"><g transform="translate(642.217078, 450.648001)"><g><path d="M 12.59375 -59.09375 L 74.125 -59.09375 L 74.125 -49.796875 L 80.65625 -49.796875 L 80.65625 -65.09375 L 48.5 -65.09375 C 47.453125 -67.609375 45.625 -71 44.0625 -73.609375 L 37.890625 -71.78125 C 39.015625 -69.78125 40.328125 -67.265625 41.28125 -65.09375 L 6.34375 -65.09375 L 6.34375 -49.796875 L 12.59375 -49.796875 Z M 74.65625 -28.9375 C 71 -33.453125 63.53125 -40.0625 57.625 -44.671875 L 52.84375 -41.625 C 55.09375 -39.796875 57.53125 -37.71875 59.875 -35.546875 L 26.328125 -33.203125 C 31.375 -36.84375 36.40625 -41.1875 41.015625 -45.796875 L 72.390625 -45.796875 L 72.390625 -51.453125 L 15.125 -51.453125 L 15.125 -45.796875 L 32.671875 -45.796875 C 27.8125 -40.84375 22.59375 -36.671875 20.6875 -35.375 C 18.421875 -33.625 16.421875 -32.5 14.78125 -32.25 C 15.46875 -30.59375 16.34375 -27.640625 16.6875 -26.328125 C 19.375 -27.46875 23.46875 -27.71875 64.65625 -30.9375 C 66.75 -28.9375 68.390625 -26.9375 69.609375 -25.375 Z M 46.671875 -1.65625 L 46.671875 -13.125 L 74.21875 -13.125 L 74.21875 -18.859375 L 46.671875 -18.859375 L 46.671875 -27.984375 L 40.15625 -27.984375 L 40.15625 -18.859375 L 13.203125 -18.859375 L 13.203125 -13.125 L 40.15625 -13.125 L 40.15625 -1.65625 L 5.296875 -1.65625 L 5.296875 4.171875 L 81.859375 4.171875 L 81.859375 -1.65625 Z M 46.671875 -1.65625 "/></g></g></g></svg>